    <svg width="800" height="600" viewBox="0 0 800 600" fill="none" xmlns="http://www.w3.org/2000/svg"><g clip-path="url(#clip0)"><rect width="800" height="600" fill="white"/><rect width="800" height="510" fill="url(#paint0_linear)"/><path d="M800 80L799.096 180L0 330L0 280L800 80Z" fill="url(#paint1_radial)" fill-opacity="0.2"/><path d="M0 110L800 60V80L0 210V110Z" fill="url(#paint2_linear)" fill-opacity="0.3"/><path d="M0 444.852L67.2588 433.34C112.848 425.537 159.534 426.903 204.589 437.356C249.519 447.78 296.073 449.167 341.544 441.435L468.118 419.914C518.562 411.338 569.873 409.038 620.881 413.069L800 427.222V519H0V444.852Z" fill="url(#paint3_linear)"/><path d="M0 444.852L67.2588 433.34C112.848 425.537 159.534 426.903 204.589 437.356C249.519 447.78 296.073 449.167 341.544 441.435L468.118 419.914C518.562 411.338 569.873 409.038 620.881 413.069L800 427.222V519H0V444.852Z" fill="#0088FB" fill-opacity="0.5"/><path d="M0 489L124.56 470.316C174.574 462.814 225.426 462.814 275.44 470.316L313.164 475.974C370.193 484.529 428.448 479.043 482.878 459.992C558.704 433.453 641.296 433.453 717.122 459.992L800 489V600H0V489Z" fill="url(#paint4_linear)"/><rect x="250" y="505" width="431" height="5" rx="2.5" fill="#298477" fill-opacity="0.5"/><path d="M280.299 420.676L281.196 433.461L276.089 456.599L278.53 457.138L283.637 434L289.832 422.78C305.254 394.85 311.973 362.948 309.128 331.172L308.234 321.188C308.147 320.215 306.861 319.931 306.372 320.777L301.359 329.457C285.401 357.083 278.068 388.85 280.299 420.676Z" fill="#00C9B1"/><path d="M280.299 420.676L281.196 433.461L276.089 456.599L278.53 457.138L283.637 434L289.832 422.78C305.254 394.85 311.973 362.948 309.128 331.172L308.234 321.188C308.147 320.215 306.861 319.931 306.372 320.777L301.359 329.457C285.401 357.083 278.068 388.85 280.299 420.676Z" fill="url(#paint5_linear)"/><path d="M308.03 330.163L307.551 324.772C307.45 323.626 305.813 323.53 305.577 324.655L284.289 426.197C284.049 427.34 285.628 427.897 286.159 426.857L291.197 416.974C304.852 390.193 310.685 360.107 308.03 330.163Z" fill="#00C9B1"/><path d="M308.03 330.163L307.551 324.772C307.45 323.626 305.813 323.53 305.577 324.655L284.289 426.197C284.049 427.34 285.628 427.897 286.159 426.857L291.197 416.974C304.852 390.193 310.685 360.107 308.03 330.163Z" fill="url(#paint6_linear)"/><path d="M280.336 457.698L284.023 445.63C279.613 423.843 286.838 401.241 303.124 386.112C303.348 385.904 303.714 386.015 303.784 386.314C308.832 407.962 302.191 430.741 286.357 446.343L282.669 458.411L280.336 457.698Z" fill="#00C9B1"/><path d="M280.336 457.698L284.023 445.63C279.613 423.843 286.838 401.241 303.124 386.112C303.348 385.904 303.714 386.015 303.784 386.314C308.832 407.962 302.191 430.741 286.357 446.343L282.669 458.411L280.336 457.698Z" fill="url(#paint7_linear)"/><path d="M287.56 445.023L289.259 443.161C303.061 428.027 308.558 407.084 303.967 387.122C303.877 386.729 303.323 386.715 303.212 387.103L286.845 444.625C286.724 445.052 287.261 445.351 287.56 445.023Z" fill="#00C9B1"/><path d="M287.56 445.023L289.259 443.161C303.061 428.027 308.558 407.084 303.967 387.122C303.877 386.729 303.323 386.715 303.212 387.103L286.845 444.625C286.724 445.052 287.261 445.351 287.56 445.023Z" fill="url(#paint8_linear)"/><path d="M266.999 385.162L275 426.833V456H277V426.833L285.001 385.162C288.962 364.533 288.822 343.327 284.589 322.753L276.979 285.761C276.76 284.697 275.24 284.697 275.021 285.761L267.411 322.753C263.178 343.327 263.038 364.533 266.999 385.162Z" fill="#00C9B1"/><path d="M266.999 385.162L275 426.833V456H277V426.833L285.001 385.162C288.962 364.533 288.822 343.327 284.589 322.753L276.979 285.761C276.76 284.697 275.24 284.697 275.021 285.761L267.411 322.753C263.178 343.327 263.038 364.533 266.999 385.162Z" fill="url(#paint9_linear)"/><path d="M284.039 320.357L278.05 291.036C277.808 289.851 276.062 290.034 276.07 291.243L276.921 415.334C276.93 416.557 278.705 416.699 278.907 415.493L285.059 378.916C288.325 359.5 287.979 339.648 284.039 320.357Z" fill="#00C9B1"/><path d="M284.039 320.357L278.05 291.036C277.808 289.851 276.062 290.034 276.07 291.243L276.921 415.334C276.93 416.557 278.705 416.699 278.907 415.493L285.059 378.916C288.325 359.5 287.979 339.648 284.039 320.357Z" fill="url(#paint10_linear)"/><path d="M267.386 439.271L268.412 440.832L272.79 457.17L274.722 456.653L270.344 440.315L270.452 438.449C272.053 410.836 264.411 383.476 248.732 360.689C248.317 360.085 247.374 360.338 247.316 361.068C245.131 388.642 252.192 416.157 267.386 439.271Z" fill="#00C9B1"/><path d="M267.386 439.271L268.412 440.832L272.79 457.17L274.722 456.653L270.344 440.315L270.452 438.449C272.053 410.836 264.411 383.476 248.732 360.689C248.317 360.085 247.374 360.338 247.316 361.068C245.131 388.642 252.192 416.157 267.386 439.271Z" fill="url(#paint11_linear)"/><path d="M270.455 434.891L270.528 431.335C271.03 406.829 263.854 382.78 250.005 362.556C249.535 361.871 248.468 362.37 248.692 363.17L268.878 435.092C269.128 435.982 270.436 435.815 270.455 434.891Z" fill="#00C9B1"/><path d="M270.455 434.891L270.528 431.335C271.03 406.829 263.854 382.78 250.005 362.556C249.535 361.871 248.468 362.37 248.692 363.17L268.878 435.092C269.128 435.982 270.436 435.815 270.455 434.891Z" fill="url(#paint12_linear)"/><path d="M250 450H309L300.571 510H258.429L250 450Z" fill="#D195F9"/><path d="M250 450H309L300.571 510H258.429L250 450Z" fill="url(#paint13_linear)"/><rect x="250" y="450" width="59" height="20" fill="#D195F9"/><rect x="250" y="450" width="59" height="20" fill="url(#paint14_linear)"/><rect x="276" y="380" width="400" height="20" fill="url(#paint15_linear)"/><rect x="576" y="380" width="100" height="20" fill="#A4ABCA"/><rect x="576" y="380" width="100" height="20" fill="url(#paint16_linear)"/><rect x="656" y="400" width="10" height="110" fill="#998BAE"/><rect x="656" y="400" width="10" height="110" fill="url(#paint17_linear)"/><rect x="586" y="400" width="10" height="110" fill="#998BAE"/><rect x="586" y="400" width="10" height="110" fill="url(#paint18_linear)"/><rect x="356" y="400" width="10" height="110" fill="url(#paint19_linear)"/><rect x="286" y="400" width="10" height="110" fill="#998BAE"/><rect x="286" y="400" width="10" height="110" fill="url(#paint20_linear)"/><rect x="271" y="380" width="410" height="5" fill="#B4CAE2"/><rect x="329" y="240" width="200" height="110" rx="4" fill="url(#paint21_linear)"/><path d="M334 247C334 245.895 334.895 245 336 245H522C523.104 245 524 245.895 524 247V330H334V247Z" fill="#ADA9BB"/><rect x="369" y="250" width="110" height="10" fill="#322C4A"/><rect width="30" height="40" transform="matrix(1 0 0 -1 489 290)" fill="#322C4A"/><rect width="30" height="60" transform="matrix(1 0 0 -1 489 320)" fill="white"/><rect width="24" height="17" transform="matrix(1 0 0 -1 492 280)" fill="#CDD0D5"/><rect width="24" height="34" transform="matrix(1 0 0 -1 492 317)" fill="#CDD0D5"/><rect width="21" height="67" transform="matrix(1 0 0 -1 339 317)" fill="#322C4A"/><rect width="21" height="57" transform="matrix(1 0 0 -1 339 317)" fill="white"/><rect width="6" height="6" transform="matrix(1 0 0 -1 342 269)" fill="#CDD0D5"/><rect width="6" height="6" transform="matrix(1 0 0 -1 351 269)" fill="#CDD0D5"/><rect width="6" height="6" transform="matrix(1 0 0 -1 342 278)" fill="#CDD0D5"/><rect width="6" height="6" transform="matrix(1 0 0 -1 351 278)" fill="#CDD0D5"/><rect width="6" height="6" transform="matrix(1 0 0 -1 342 287)" fill="#CDD0D5"/><rect width="6" height="6" transform="matrix(1 0 0 -1 351 287)" fill="#CDD0D5"/><rect width="6" height="6" transform="matrix(1 0 0 -1 342 296)" fill="#CDD0D5"/><rect width="6" height="6" transform="matrix(1 0 0 -1 351 296)" fill="#CDD0D5"/><rect width="6" height="6" transform="matrix(1 0 0 -1 342 305)" fill="#CDD0D5"/><rect width="6" height="6" transform="matrix(1 0 0 -1 351 305)" fill="#CDD0D5"/><rect width="6" height="6" transform="matrix(1 0 0 -1 342 314)" fill="#CDD0D5"/><rect width="110" height="60" transform="matrix(1 0 0 -1 369 320)" fill="white"/><rect x="499" y="340" width="5" height="10" fill="#D195F9"/><path d="M449 350H419C424.523 350 429 354.477 429 360V380H459V360C459 354.477 454.523 350 449 350Z" fill="url(#paint22_linear)"/><path d="M409 380C409 377.238 411.238 375 414 375H461.5C462.88 375 464 376.119 464 377.5V380H409Z" fill="#998BAE"/><rect x="409" y="280" width="30" height="30" rx="15" fill="#0033C7"/><rect x="404.5" y="274.5" width="25" height="25" rx="12.5" stroke="#FF267C"/><rect x="399" y="270" width="20" height="20" rx="10" fill="#BE00A9"/><rect x="319" y="340" width="30" height="40" fill="#EEEEEE"/><rect x="319" y="340" width="30" height="40" fill="url(#paint23_linear)"/><path d="M314 355C314 352.238 316.238 350 319 350V370C316.238 370 314 367.761 314 365V355Z" fill="#EEEEEE"/><path d="M314 355C314 352.238 316.238 350 319 350V370C316.238 370 314 367.761 314 365V355Z" fill="url(#paint24_linear)"/><rect x="649" y="205" width="145" height="110" rx="4" transform="rotate(90 649 205)" fill="#7C72A5"/><rect x="649" y="205" width="145" height="110" rx="4" transform="rotate(90 649 205)" fill="url(#paint25_linear)"/><path d="M642 210C643.104 210 644 210.895 644 212L644 343C644 344.104 643.104 345 642 345L559 345L559 210L642 210Z" fill="#322C4A"/><rect x="549" y="320" width="5" height="10" transform="rotate(90 549 320)" fill="#D195F9"/><path d="M609 350H579C584.523 350 589 354.477 589 360V380H619V360C619 354.477 614.523 350 609 350Z" fill="url(#paint26_linear)"/><path d="M569 380C569 377.238 571.238 375 574 375H621.5C622.88 375 624 376.119 624 377.5V380H569Z" fill="#998BAE"/><rect x="564" y="215" width="5" height="5" fill="#EEEEEE"/><rect x="579" y="215" width="11" height="5" fill="#FF267C"/><rect x="589" y="225" width="20" height="5" fill="#BE00A9"/><rect x="589" y="275" width="10" height="5" fill="#BE00A9"/><rect x="599" y="235" width="30" height="5" fill="#47BEA2"/><rect x="599" y="245" width="20" height="5" fill="#EEEEEE"/><rect x="599" y="255" width="40" height="5" fill="#EEEEEE"/><rect x="599" y="265" width="20" height="5" fill="#EEEEEE"/><rect x="629" y="245" width="10" height="5" fill="#EEEEEE"/><rect x="579" y="285" width="11" height="5" fill="#BE00A9"/><rect x="579" y="305" width="11" height="5" fill="#FF267C"/><rect x="589" y="315" width="40" height="5" fill="#BE00A9"/><rect x="599" y="325" width="20" height="5" fill="#47BEA2"/><rect x="599" y="335" width="30" height="5" fill="#EEEEEE"/><rect x="629" y="325" width="10" height="5" fill="#47BEA2"/><rect x="564" y="225" width="5" height="5" fill="#EEEEEE"/><rect x="564" y="235" width="5" height="5" fill="#EEEEEE"/><rect x="564" y="245" width="5" height="5" fill="#EEEEEE"/><rect x="564" y="255" width="5" height="5" fill="#EEEEEE"/><rect x="564" y="265" width="5" height="5" fill="#EEEEEE"/><rect x="564" y="275" width="5" height="5" fill="#EEEEEE"/><rect x="564" y="285" width="5" height="5" fill="#EEEEEE"/><rect x="564" y="295" width="5" height="5" fill="#EEEEEE"/><rect x="564" y="305" width="5" height="5" fill="#EEEEEE"/><rect x="564" y="315" width="5" height="5" fill="#EEEEEE"/><rect x="564" y="335" width="5" height="5" fill="#EEEEEE"/><rect x="564" y="325" width="5" height="5" fill="#EEEEEE"/><path d="M469 380H489H529V374H489L469 377V380Z" fill="#EEEEEE"/><path d="M509 377L529 374V380H509V377Z" fill="#ADA9BB"/><path d="M539 378.5C539 376.015 541.014 374 543.5 374H554.5C556.985 374 559 376.015 559 378.5V380H539V378.5Z" fill="#EEEEEE"/><path d="M549 378.5C549 376.015 551.014 374 553.5 374H554.5C556.985 374 559 376.015 559 378.5V380H549V378.5Z" fill="#ADA9BB"/></g><defs><linearGradient id="paint0_linear" x1="400" y1="0" x2="400" y2="510" gradientUnits="userSpaceOnUse"><stop stop-color="#5053EF"/><stop offset="0.799837" stop-color="#0088FB"/></linearGradient><radialGradient id="paint1_radial" cx="0" cy="0" r="1" gradientUnits="userSpaceOnUse" gradientTransform="translate(595.5 137) rotate(79.5839) scale(69.1394 545.394)"><stop stop-color="#CDE8F6"/><stop offset="1" stop-color="#CDE8F6" stop-opacity="0"/></radialGradient><linearGradient id="paint2_linear" x1="400" y1="60" x2="410" y2="125.5" gradientUnits="userSpaceOnUse"><stop offset="0.252921" stop-color="#D195F9"/><stop offset="1" stop-color="#D195F9" stop-opacity="0"/></linearGradient><linearGradient id="paint3_linear" x1="428.815" y1="418.926" x2="428.815" y2="479.045" gradientUnits="userSpaceOnUse"><stop stop-color="#00C6AA"/><stop offset="1" stop-color="#298477"/></linearGradient><linearGradient id="paint4_linear" x1="400" y1="489" x2="400" y2="579" gradientUnits="userSpaceOnUse"><stop stop-color="#00C6AA"/><stop offset="1" stop-color="#298477"/><stop offset="1" stop-color="#298477"/></linearGradient><linearGradient id="paint5_linear" x1="259" y1="452.827" x2="289.643" y2="314" gradientUnits="userSpaceOnUse"><stop stop-color="#007664"/><stop offset="1" stop-color="white" stop-opacity="0"/></linearGradient><linearGradient id="paint6_linear" x1="300.854" y1="316.723" x2="324.046" y2="321.842" gradientUnits="userSpaceOnUse"><stop stop-color="#007664"/><stop offset="1" stop-color="white" stop-opacity="0"/></linearGradient><linearGradient id="paint7_linear" x1="264" y1="452.707" x2="286.125" y2="380.296" gradientUnits="userSpaceOnUse"><stop stop-color="#007664"/><stop offset="1" stop-color="white" stop-opacity="0"/></linearGradient><linearGradient id="paint8_linear" x1="297.793" y1="383.861" x2="319.963" y2="390.635" gradientUnits="userSpaceOnUse"><stop stop-color="#007664"/><stop offset="1" stop-color="white" stop-opacity="0"/></linearGradient><linearGradient id="paint9_linear" x1="261" y1="456" x2="261" y2="281" gradientUnits="userSpaceOnUse"><stop stop-color="#007664"/><stop offset="1" stop-color="white" stop-opacity="0"/></linearGradient><linearGradient id="paint10_linear" x1="271" y1="281" x2="290" y2="281" gradientUnits="userSpaceOnUse"><stop stop-color="#007664"/><stop offset="1" stop-color="white" stop-opacity="0"/></linearGradient><linearGradient id="paint11_linear" x1="259.267" y1="460.794" x2="233" y2="362.765" gradientUnits="userSpaceOnUse"><stop stop-color="#007664"/><stop offset="1" stop-color="white" stop-opacity="0"/></linearGradient><linearGradient id="paint12_linear" x1="242.659" y1="360.176" x2="261.012" y2="355.259" gradientUnits="userSpaceOnUse"><stop stop-color="#007664"/><stop offset="1" stop-color="white" stop-opacity="0"/></linearGradient><linearGradient id="paint13_linear" x1="309" y1="487.5" x2="283.714" y2="487.5" gradientUnits="userSpaceOnUse"><stop stop-color="#A970D0"/><stop offset="1" stop-color="#D195F9"/></linearGradient><linearGradient id="paint14_linear" x1="309" y1="450" x2="250" y2="450" gradientUnits="userSpaceOnUse"><stop stop-color="#A970D0"/><stop offset="1" stop-color="#D195F9"/></linearGradient><linearGradient id="paint15_linear" x1="476" y1="380" x2="476" y2="412" gradientUnits="userSpaceOnUse"><stop offset="0.325967" stop-color="#CDE8F6"/><stop offset="1" stop-color="#A4ABCA"/></linearGradient><linearGradient id="paint16_linear" x1="660.5" y1="380" x2="450" y2="380" gradientUnits="userSpaceOnUse"><stop stop-color="#A4ABCA"/><stop offset="1" stop-color="#CDE8F6"/></linearGradient><linearGradient id="paint17_linear" x1="661" y1="400" x2="661" y2="510" gradientUnits="userSpaceOnUse"><stop stop-color="#7C72A5"/><stop offset="1" stop-color="#998BAE"/></linearGradient><linearGradient id="paint18_linear" x1="591" y1="400" x2="591" y2="510" gradientUnits="userSpaceOnUse"><stop stop-color="#7C72A5"/><stop offset="1" stop-color="#998BAE"/></linearGradient><linearGradient id="paint19_linear" x1="361" y1="400" x2="361" y2="510" gradientUnits="userSpaceOnUse"><stop stop-color="#7C72A5"/><stop offset="1" stop-color="#998BAE"/></linearGradient><linearGradient id="paint20_linear" x1="291" y1="400" x2="291" y2="510" gradientUnits="userSpaceOnUse"><stop stop-color="#7C72A5"/><stop offset="1" stop-color="#998BAE"/></linearGradient><linearGradient id="paint21_linear" x1="429" y1="240" x2="429" y2="350" gradientUnits="userSpaceOnUse"><stop stop-color="#998BAE"/><stop offset="1" stop-color="#7C72A5"/></linearGradient><linearGradient id="paint22_linear" x1="439" y1="350" x2="439" y2="380" gradientUnits="userSpaceOnUse"><stop stop-color="#A4ABCA"/><stop offset="1" stop-color="#CDD0D5"/></linearGradient><linearGradient id="paint23_linear" x1="349" y1="380" x2="319" y2="380" gradientUnits="userSpaceOnUse"><stop stop-color="#ADA9BB"/><stop offset="1" stop-color="white" stop-opacity="0"/></linearGradient><linearGradient id="paint24_linear" x1="309" y1="370" x2="309" y2="350" gradientUnits="userSpaceOnUse"><stop stop-color="#ADA9BB"/><stop offset="1" stop-color="white" stop-opacity="0"/></linearGradient><linearGradient id="paint25_linear" x1="794" y1="315" x2="649" y2="315" gradientUnits="userSpaceOnUse"><stop stop-color="#7C72A5"/><stop offset="1" stop-color="#998BAE"/></linearGradient><linearGradient id="paint26_linear" x1="599" y1="350" x2="599" y2="380" gradientUnits="userSpaceOnUse"><stop stop-color="#A4ABCA"/><stop offset="1" stop-color="#CDD0D5"/></linearGradient><clipPath id="clip0"><rect width="800" height="600" fill="white"/></clipPath></defs></svg>